<?xml version="1.0" encoding="UTF-8"?>
<svg id="Layer_1" data-name="Layer 1" xmlns="http://www.w3.org/2000/svg" version="1.1" viewBox="0 0 471 153.1">
  <defs>
    <style>
      .cls-1 {
        stroke-width: 0px;
      }

      .cls-1, .cls-2 {
        fill: #692e71;
      }

      .cls-2 {
        font-family: Thonburi, Thonburi;
        font-size: 72px;
      }
    </style>
  </defs>
  <path class="cls-1" d="M252.6,8l5.7.3,6,1.6,7.3,2.5,5.7,2.5,6.7,3.2,7.3,4.1,8.6,5.1,2.5,1.6v-2.9l1.3-3.2,1.6-1.3,1.3.6,1.6,3.2.6,2.5.3,5.1,8.9,5.4,3.2,1.9.3,1.3-1.9-.3-8.3-3.5-11.1-5.4-19.7-9.9-9.6-3.8-9.2-2.9-4.5-1h-7l-6.7,1.6-8.3,2.9-5.7,2.5-13.4,6.7-7.6,4.5-4.8,2.9-.3,9.6-.6,5.1-.6,2.2h30.6l2.5,1.3,1,1v1.9l-1.6,1.6-2.9,1h-45.5l-15.9-.3-22.9-1.3-11.8-1-1-.6v-1l11.8-1,14-1,7.6-.3,16.2-.3h13.4l-1-6.4v-6.7l-5.1,2.2-2.2.6h-2.2l-1.3-.6-.3-2.2,1.3-1.9,2.2-1.9,6.7-3.8,7.6-4.1,7.3-4.1,9.2-4.8,7.6-3.8,8.6-3.5,6.7-2.2,3.8-1,5.7-.6Z"/>
  <text class="cls-2" transform="translate(35.3 127.4)"><tspan x="0" y="0">SMARTHUB</tspan></text>
</svg>